<?xml version="1.0" encoding="iso-8859-1"?>
<!-- Uploaded to: SVG Repo, www.svgrepo.com, Generator: SVG Repo Mixer Tools -->
<svg height="800px" width="800px" version="1.1" id="Layer_1" xmlns="http://www.w3.org/2000/svg" xmlns:xlink="http://www.w3.org/1999/xlink" 
	 viewBox="0 0 512 512" xml:space="preserve">
<path style="fill:#7ACBFF;" d="M114.309,415.108v47.573c0,21.606,17.515,39.12,39.12,39.12h205.141
	c21.606,0,39.12-17.515,39.12-39.12v-47.573H114.309z"/>
<g>
	<path style="fill:#FFF1B8;" d="M397.691,49.319c0-21.606-17.515-39.12-39.12-39.12H153.43c-21.606,0-39.12,17.515-39.12,39.12
		v365.788h283.382L397.691,49.319L397.691,49.319z"/>
	<circle style="fill:#FFF1B8;" cx="256" cy="457.434" r="16.829"/>
</g>
<path style="fill:#7ACBFF;" d="M303.153,239.618l-7.104,2.03l-7.306,4.875l-13.046,8.706
	c-23.675-15.285-43.602-35.708-58.297-59.755l10.146-10.146l6.09-6.091l2.03-7.104l-47.697-47.697l-8.119,3.044
	c-1.717,1.717-3.31,3.509-4.79,5.361c-20.028,25.074-18.434,61.733,4.79,84.957l77.633,77.633
	c23.225,23.225,59.884,24.818,84.957,4.79c1.853-1.48,3.645-3.074,5.361-4.79l3.044-8.119L303.153,239.618z"/>
<g>
	<path style="fill:#0B6699;" d="M104.109,462.681c0,27.195,22.124,49.319,49.319,49.319H358.57
		c27.195,0,49.319-22.124,49.319-49.319V49.319C407.891,22.124,385.766,0,358.57,0H153.43c-27.195,0-49.319,22.124-49.319,49.319
		v413.361H104.109z M124.508,49.319c0-15.947,12.974-28.921,28.921-28.921H358.57c15.947,0,28.921,12.974,28.921,28.921v355.589
		H124.508V49.319z M387.492,462.681c0,15.947-12.974,28.921-28.921,28.921H153.43c-15.947,0-28.921-12.974-28.921-28.921v-37.374
		h262.984L387.492,462.681L387.492,462.681z"/>
	<path style="fill:#0B6699;" d="M241.211,55.076h29.578c5.632,0,10.199-4.566,10.199-10.199s-4.567-10.199-10.199-10.199h-29.578
		c-5.632,0-10.199,4.566-10.199,10.199S235.579,55.076,241.211,55.076z"/>
	<path style="fill:#0B6699;" d="M242.204,371.251h-91.255c-5.632,0-10.199,4.566-10.199,10.199c0,5.633,4.567,10.199,10.199,10.199
		h91.255c5.632,0,10.199-4.566,10.199-10.199C252.403,375.817,247.836,371.251,242.204,371.251z"/>
	<path style="fill:#0B6699;" d="M282.518,371.251h-5.346c-5.632,0-10.199,4.566-10.199,10.199c0,5.633,4.567,10.199,10.199,10.199
		h5.346c5.632,0,10.199-4.566,10.199-10.199C292.717,375.817,288.15,371.251,282.518,371.251z"/>
	<path style="fill:#0B6699;" d="M256,484.462c14.903,0,27.028-12.125,27.028-27.028S270.903,430.406,256,430.406
		c-14.903,0-27.028,12.125-27.028,27.028S241.097,484.462,256,484.462z M256,450.805c3.655,0,6.629,2.974,6.629,6.629
		c0,3.655-2.974,6.629-6.629,6.629c-3.655,0-6.629-2.974-6.629-6.629C249.371,453.779,252.345,450.805,256,450.805z"/>
	<path style="fill:#0B6699;" d="M442.612,198.005c-3.984-3.983-10.44-3.983-14.425,0c-3.983,3.983-3.983,10.441,0,14.425
		c23.463,23.462,23.463,61.639,0,85.1c-3.983,3.983-3.983,10.441,0,14.425c1.992,1.992,4.602,2.987,7.212,2.987
		c2.61,0,5.22-0.995,7.212-2.987C474.027,280.539,474.027,229.421,442.612,198.005z"/>
	<path style="fill:#0B6699;" d="M470.017,170.6c-3.984-3.983-10.44-3.983-14.425,0c-3.983,3.983-3.983,10.441,0,14.425
		c18.686,18.686,28.977,43.53,28.977,69.955s-10.291,51.27-28.977,69.955c-3.983,3.983-3.983,10.441,0,14.425
		c1.992,1.992,4.602,2.987,7.212,2.987c2.61,0,5.22-0.995,7.212-2.987C516.544,292.832,516.544,217.128,470.017,170.6z"/>
	<path style="fill:#0B6699;" d="M83.813,198.005c-3.984-3.983-10.44-3.983-14.425,0c-31.416,31.416-31.416,82.533,0,113.95
		c1.992,1.992,4.602,2.987,7.212,2.987c2.61,0,5.22-0.995,7.212-2.987c3.983-3.983,3.983-10.441,0-14.425
		c-23.463-23.462-23.463-61.639,0-85.1C87.796,208.446,87.796,201.988,83.813,198.005z"/>
	<path style="fill:#0B6699;" d="M27.431,254.98c0-26.426,10.291-51.27,28.977-69.955c3.983-3.983,3.983-10.441,0-14.425
		c-3.984-3.983-10.44-3.983-14.425,0c-46.527,46.528-46.527,122.232,0,168.76c1.992,1.992,4.602,2.987,7.212,2.987
		s5.22-0.995,7.212-2.987c3.983-3.983,3.983-10.441,0-14.425C37.721,306.25,27.431,281.406,27.431,254.98z"/>
	<path style="fill:#0B6699;" d="M310.366,232.405c-2.619-2.618-6.45-3.613-10.015-2.595l-7.104,2.03
		c-1.015,0.291-1.98,0.736-2.859,1.323l-14.668,9.788c-17.71-12.415-33.181-28.156-45.295-46.078l10.425-10.425
		c1.226-1.226,2.119-2.743,2.596-4.41l2.03-7.104c1.018-3.562,0.023-7.394-2.595-10.015l-47.697-47.697
		c-2.827-2.827-7.048-3.742-10.793-2.338l-8.119,3.044c-1.364,0.511-2.602,1.309-3.632,2.338c-1.938,1.939-3.804,4.028-5.546,6.207
		c-23.54,29.472-21.155,71.832,5.546,98.535l77.633,77.632c14.404,14.405,33.363,21.733,52.398,21.732
		c16.254,0,32.564-5.343,46.138-16.187c2.179-1.741,4.266-3.606,6.205-5.545c1.029-1.03,1.827-2.267,2.338-3.631l3.044-8.119
		c1.404-3.745,0.49-7.966-2.338-10.794L310.366,232.405z M336.079,292.253c-21.345,17.05-52.032,15.315-71.379-4.034l-77.633-77.632
		c-19.349-19.349-21.082-50.035-4.034-71.379c0.783-0.98,1.598-1.933,2.44-2.849l38.31,38.311l-13.591,13.592
		c-3.331,3.331-3.947,8.51-1.491,12.531c15.402,25.2,36.656,46.986,61.469,63.005c3.415,2.204,7.81,2.17,11.194-0.085l18.872-12.593
		l38.696,38.696C338.011,290.656,337.058,291.471,336.079,292.253z"/>
</g>
</svg>