<?xml version="1.0" encoding="utf-8"?><!-- Uploaded to: SVG Repo, www.svgrepo.com, Generator: SVG Repo Mixer Tools -->
<svg width="800px" height="800px" viewBox="0 0 32 32" xmlns="http://www.w3.org/2000/svg">
  <g id="radar" transform="translate(-248 -186)">
    <line id="Line_19" data-name="Line 19" x2="3.397" y2="3.395" transform="translate(274.603 212.605)" fill="none" stroke="#498efc" stroke-linecap="round" stroke-linejoin="round" stroke-width="2"/>
    <line id="Line_20" data-name="Line 20" x2="3.393" y2="3.394" transform="translate(250 188)" fill="none" stroke="#498efc" stroke-linecap="round" stroke-linejoin="round" stroke-width="2"/>
    <line id="Line_21" data-name="Line 21" y1="3.394" x2="3.394" transform="translate(274.606 188)" fill="none" stroke="#498efc" stroke-linecap="round" stroke-linejoin="round" stroke-width="2"/>
    <line id="Line_22" data-name="Line 22" y1="3.394" x2="3.394" transform="translate(250 212.606)" fill="none" stroke="#498efc" stroke-linecap="round" stroke-linejoin="round" stroke-width="2"/>
    <path id="Path_44" data-name="Path 44" d="M279,202a15,15,0,1,0-4.394,10.607A14.951,14.951,0,0,0,279,202Z" fill="none" stroke="#498efc" stroke-linecap="round" stroke-linejoin="round" stroke-width="2"/>
    <path id="Path_45" data-name="Path 45" d="M256.928,209.07A9.97,9.97,0,0,0,264,212" fill="none" stroke="#f1d17c" stroke-linecap="round" stroke-linejoin="round" stroke-width="2"/>
    <path id="Path_46" data-name="Path 46" d="M264,192a10,10,0,0,0-7.072,17.07" fill="none" stroke="#f1d17c" stroke-linejoin="round" stroke-width="2"/>
    <path id="Path_47" data-name="Path 47" d="M264,197a5,5,0,0,0,0,10" fill="none" stroke="#f1d17c" stroke-linecap="round" stroke-linejoin="round" stroke-width="2"/>
    <path id="Path_48" data-name="Path 48" d="M264,192v10h9" fill="none" stroke="#498efc" stroke-linecap="round" stroke-linejoin="round" stroke-width="2"/>
  </g>
</svg>